<mxfile host="app.diagrams.net" modified="2021-04-13T07:16:43.880Z" agent="5.0 (Windows NT 10.0; Win64; x64) AppleWebKit/537.36 (KHTML, like Gecko) Chrome/89.0.4389.114 Safari/537.36" etag="2wpQe165C6EzsxjM3D_5" version="14.5.10" type="github" pages="2">
  <diagram id="Av82mVz9o47YF8wGWr8j" name="Page-1">
    <mxGraphModel dx="1339" dy="834" grid="1" gridSize="10" guides="1" tooltips="1" connect="1" arrows="1" fold="1" page="1" pageScale="1" pageWidth="827" pageHeight="1169" math="0" shadow="0">
      <root>
        <mxCell id="0" />
        <mxCell id="1" parent="0" />
      </root>
    </mxGraphModel>
  </diagram>
  <diagram id="rTvgTV0ss5NDzIfqqXLz" name="Page-2">
    <mxGraphModel dx="2166" dy="834" grid="1" gridSize="10" guides="1" tooltips="1" connect="1" arrows="1" fold="1" page="1" pageScale="1" pageWidth="827" pageHeight="1169" math="0" shadow="0">
      <root>
        <mxCell id="Bk4-m45rTy-zDWND7U2K-0" />
        <mxCell id="Bk4-m45rTy-zDWND7U2K-1" parent="Bk4-m45rTy-zDWND7U2K-0" />
        <mxCell id="Bk4-m45rTy-zDWND7U2K-2" value="" style="html=1;shadow=0;dashed=0;align=center;verticalAlign=middle;shape=mxgraph.arrows2.arrow;dy=0.6;dx=40;direction=north;notch=0;" vertex="1" parent="Bk4-m45rTy-zDWND7U2K-1">
          <mxGeometry x="380" y="380" width="70" height="100" as="geometry" />
        </mxCell>
        <mxCell id="Bk4-m45rTy-zDWND7U2K-3" value="" style="html=1;shadow=0;dashed=0;align=center;verticalAlign=middle;shape=mxgraph.arrows2.bendArrow;dy=15;dx=38;notch=0;arrowHead=55;rounded=1;" vertex="1" parent="Bk4-m45rTy-zDWND7U2K-1">
          <mxGeometry x="360" y="380" width="100" height="100" as="geometry" />
        </mxCell>
        <mxCell id="Bk4-m45rTy-zDWND7U2K-6" style="edgeStyle=orthogonalEdgeStyle;rounded=0;orthogonalLoop=1;jettySize=auto;html=1;exitX=0;exitY=0;exitDx=12.5;exitDy=62;exitPerimeter=0;" edge="1" parent="Bk4-m45rTy-zDWND7U2K-1" source="Bk4-m45rTy-zDWND7U2K-4">
          <mxGeometry relative="1" as="geometry">
            <mxPoint x="360" y="300" as="targetPoint" />
          </mxGeometry>
        </mxCell>
        <mxCell id="Bk4-m45rTy-zDWND7U2K-4" value="" style="html=1;shadow=0;dashed=0;align=center;verticalAlign=middle;shape=mxgraph.arrows2.bendDoubleArrow;dy=15;dx=38;arrowHead=55;rounded=0;" vertex="1" parent="Bk4-m45rTy-zDWND7U2K-1">
          <mxGeometry x="360" y="380" width="100" height="100" as="geometry" />
        </mxCell>
        <mxCell id="Bk4-m45rTy-zDWND7U2K-7" style="edgeStyle=orthogonalEdgeStyle;rounded=0;orthogonalLoop=1;jettySize=auto;html=1;exitX=0;exitY=0;exitDx=62;exitDy=42.5;exitPerimeter=0;" edge="1" parent="Bk4-m45rTy-zDWND7U2K-1" source="Bk4-m45rTy-zDWND7U2K-5">
          <mxGeometry relative="1" as="geometry">
            <mxPoint x="280" y="360" as="targetPoint" />
          </mxGeometry>
        </mxCell>
        <mxCell id="Bk4-m45rTy-zDWND7U2K-8" style="edgeStyle=orthogonalEdgeStyle;rounded=0;orthogonalLoop=1;jettySize=auto;html=1;exitX=0;exitY=0;exitDx=42.5;exitDy=52.25;exitPerimeter=0;" edge="1" parent="Bk4-m45rTy-zDWND7U2K-1" source="Bk4-m45rTy-zDWND7U2K-5" target="Bk4-m45rTy-zDWND7U2K-9">
          <mxGeometry relative="1" as="geometry">
            <mxPoint x="210" y="420" as="targetPoint" />
          </mxGeometry>
        </mxCell>
        <mxCell id="Bk4-m45rTy-zDWND7U2K-5" value="" style="html=1;shadow=0;dashed=0;align=center;verticalAlign=middle;shape=mxgraph.arrows2.bendDoubleArrow;dy=15;dx=38;arrowHead=55;rounded=0;" vertex="1" parent="Bk4-m45rTy-zDWND7U2K-1">
          <mxGeometry x="-130" y="610" width="100" height="100" as="geometry" />
        </mxCell>
        <mxCell id="Bk4-m45rTy-zDWND7U2K-9" value="" style="html=1;shadow=0;dashed=0;align=center;verticalAlign=middle;shape=mxgraph.arrows2.uTurnArrow;dy=11;arrowHead=43;dx2=25;" vertex="1" parent="Bk4-m45rTy-zDWND7U2K-1">
          <mxGeometry x="160" y="370" width="100" height="100" as="geometry" />
        </mxCell>
      </root>
    </mxGraphModel>
  </diagram>
</mxfile>
